<?xml version="1.0" standalone="no"?>
<!DOCTYPE svg PUBLIC "-//W3C//DTD SVG 20010904//EN"
 "http://www.w3.org/TR/2001/REC-SVG-20010904/DTD/svg10.dtd">
<svg version="1.0" xmlns="http://www.w3.org/2000/svg"
 width="700.000000pt" height="700.000000pt" viewBox="0 0 700.000000 700.000000"
 preserveAspectRatio="xMidYMid meet">
<metadata>
Created by potrace 1.14, written by Peter Selinger 2001-2017
</metadata>
<g transform="translate(0.000000,700.000000) scale(0.100000,-0.100000)"
fill="#000000" stroke="none">
<path d="M1987 6954 c-1 -1 -47 -4 -103 -8 -55 -4 -112 -9 -125 -11 -13 -3
-60 -12 -104 -20 -104 -19 -104 -19 -215 -53 -129 -41 -194 -66 -198 -74 -2
-5 -11 -8 -19 -8 -22 0 -190 -90 -293 -157 -415 -269 -725 -695 -853 -1173
-14 -52 -28 -111 -31 -130 -3 -19 -10 -62 -16 -95 -6 -33 -13 -98 -17 -145 -8
-112 -8 -3079 0 -3193 6 -79 17 -161 32 -237 39 -202 149 -489 250 -651 48
-76 99 -154 105 -159 3 -3 28 -33 54 -68 161 -211 450 -440 714 -564 98 -47
314 -125 371 -134 14 -3 40 -9 56 -14 17 -4 59 -13 95 -19 36 -7 81 -14 100
-18 56 -10 3256 -13 3335 -2 118 15 143 19 260 43 178 37 429 144 630 269 142
88 341 264 460 407 252 304 389 615 461 1050 11 65 15 3253 4 3325 -5 33 -11
82 -15 109 -8 73 -32 184 -60 274 -173 579 -596 1055 -1145 1289 -151 64 -340
120 -467 138 -21 3 -49 8 -63 10 -88 16 -319 18 -1683 19 -835 1 -1519 0
-1520 0z"/>
</g>
</svg>
