<svg width="24" height="24" viewBox="0 0 24 24" fill="none" xmlns="http://www.w3.org/2000/svg">
<circle cx="12" cy="12" r="12" fill="white"/>
<g clip-path="url(#clip0_509_183079)">
<path d="M10.4211 17.9211C12.8195 17.9211 14.7632 15.9774 14.7632 13.5789C14.7632 11.1805 12.8195 9.23685 10.4211 9.23685C8.02263 9.23685 6.07895 11.1805 6.07895 13.5789C6.07895 15.9774 8.02263 17.9211 10.4211 17.9211ZM10.4211 19.5C7.15105 19.5 4.5 16.8489 4.5 13.5789C4.5 10.309 7.15105 7.6579 10.4211 7.6579C13.6911 7.6579 16.3421 10.309 16.3421 13.5789C16.3421 16.8489 13.6911 19.5 10.4211 19.5Z" fill="#FBCC5C"/>
<path d="M13.5788 14.7632C15.9772 14.7632 17.9209 12.8195 17.9209 10.4211C17.9209 8.02263 15.9772 6.07895 13.5788 6.07895C11.1803 6.07895 9.23666 8.02263 9.23666 10.4211C9.23666 12.8195 11.1803 14.7632 13.5788 14.7632ZM13.5788 16.3421C10.3088 16.3421 7.65771 13.6911 7.65771 10.4211C7.65771 7.15105 10.3088 4.5 13.5788 4.5C16.8488 4.5 19.4998 7.15105 19.4998 10.4211C19.4998 13.6911 16.8488 16.3421 13.5788 16.3421Z" fill="#35D07F"/>
<path d="M13.7746 16.3421C14.1851 15.8447 14.4788 15.2621 14.6351 14.6353C15.2603 14.479 15.843 14.1853 16.3419 13.7747C16.3198 14.4995 16.1635 15.2132 15.8809 15.8826C15.213 16.1637 14.4993 16.32 13.7746 16.3421ZM9.36456 9.36474C8.73929 9.52106 8.15666 9.81474 7.65771 10.2253C7.67982 9.50053 7.83614 8.78685 8.11877 8.11895C8.78666 7.8379 9.50193 7.68158 10.2251 7.6579C9.81456 8.15527 9.52087 8.7379 9.36456 9.36474Z" fill="#5EA33B"/>
</g>
<defs>
<clipPath id="clip0_509_183079">
<rect width="15" height="15" fill="white" transform="translate(4.5 4.5)"/>
</clipPath>
</defs>
</svg>
