<?xml version="1.0" encoding="UTF-8"?>
<svg xmlns="http://www.w3.org/2000/svg" xmlns:xlink="http://www.w3.org/1999/xlink" width="25px" height="25px" viewBox="0 0 25 25" version="1.1">
<g id="surface1">
<path style=" stroke:none;fill-rule:nonzero;fill:rgb(100%,100%,100%);fill-opacity:1;" d="M 3.75 0 L 21.25 0 C 23.320312 0 25 1.679688 25 3.75 L 25 21.25 C 25 23.320312 23.320312 25 21.25 25 L 3.75 25 C 1.679688 25 0 23.320312 0 21.25 L 0 3.75 C 0 1.679688 1.679688 0 3.75 0 Z M 3.75 0 "/>
<path style=" stroke:none;fill-rule:nonzero;fill:rgb(23.529412%,23.529412%,23.137255%);fill-opacity:1;" d="M 12.5 17.675781 L 12.5 22.898438 L 18.898438 13.867188 Z M 12.5 17.675781 "/>
<path style=" stroke:none;fill-rule:nonzero;fill:rgb(20.392157%,20.392157%,20.392157%);fill-opacity:1;" d="M 12.5 2 L 18.898438 12.648438 L 12.5 16.453125 L 6.054688 12.648438 "/>
<path style=" stroke:none;fill-rule:nonzero;fill:rgb(54.901961%,54.901961%,54.901961%);fill-opacity:1;" d="M 12.5 2 L 12.5 9.71875 L 6.054688 12.648438 M 6.054688 13.867188 L 12.5 17.675781 L 12.5 22.898438 "/>
<path style=" stroke:none;fill-rule:nonzero;fill:rgb(7.843137%,7.843137%,7.843137%);fill-opacity:1;" d="M 12.5 9.71875 L 12.5 16.453125 L 18.898438 12.648438 "/>
<path style=" stroke:none;fill-rule:nonzero;fill:rgb(22.352941%,22.352941%,22.352941%);fill-opacity:1;" d="M 6.054688 12.648438 L 12.5 9.71875 L 12.5 16.453125 "/>
</g>
</svg>
