<svg width="24" height="24" viewBox="0 0 24 24" fill="none" xmlns="http://www.w3.org/2000/svg">
<g clip-path="url(#clip0_509_183069)">
<path d="M12 24C18.6274 24 24 18.6274 24 12C24 5.37258 18.6274 0 12 0C5.37258 0 0 5.37258 0 12C0 18.6274 5.37258 24 12 24Z" fill="#8247E5"/>
<g clip-path="url(#clip1_509_183069)">
<path d="M15.8281 9.88209C15.5547 9.72986 15.2031 9.72986 14.8906 9.88209L12.7031 11.1381L11.2188 11.9373L9.07031 13.1933C8.79688 13.3455 8.44531 13.3455 8.13281 13.1933L6.45312 12.2037C6.17969 12.0515 5.98438 11.747 5.98438 11.4045V9.5015C5.98438 9.19702 6.14062 8.89254 6.45312 8.70224L8.13281 7.75075C8.40625 7.59851 8.75781 7.59851 9.07031 7.75075L10.75 8.7403C11.0234 8.89254 11.2188 9.19702 11.2188 9.53956V10.7955L12.7031 9.95821V8.66418C12.7031 8.35971 12.5469 8.05523 12.2344 7.86493L9.10938 6.07612C8.83594 5.92388 8.48437 5.92388 8.17187 6.07612L4.96875 7.90299C4.65625 8.05523 4.5 8.35971 4.5 8.66418V12.2418C4.5 12.5463 4.65625 12.8508 4.96875 13.041L8.13281 14.8299C8.40625 14.9821 8.75781 14.9821 9.07031 14.8299L11.2188 13.6119L12.7031 12.7746L14.8516 11.5567C15.125 11.4045 15.4766 11.4045 15.7891 11.5567L17.4688 12.5082C17.7422 12.6605 17.9375 12.9649 17.9375 13.3075V15.2105C17.9375 15.5149 17.7812 15.8194 17.4688 16.0097L15.8281 16.9612C15.5547 17.1134 15.2031 17.1134 14.8906 16.9612L13.2109 16.0097C12.9375 15.8575 12.7422 15.553 12.7422 15.2105V13.9925L11.2578 14.8299V16.0858C11.2578 16.3903 11.4141 16.6948 11.7266 16.8851L14.8906 18.6739C15.1641 18.8261 15.5156 18.8261 15.8281 18.6739L18.9922 16.8851C19.2656 16.7328 19.4609 16.4284 19.4609 16.0858V12.4702C19.4609 12.1657 19.3047 11.8612 18.9922 11.6709L15.8281 9.88209Z" fill="white"/>
</g>
</g>
<defs>
<clipPath id="clip0_509_183069">
<rect width="24" height="24" fill="white"/>
</clipPath>
<clipPath id="clip1_509_183069">
<rect width="15" height="12.75" fill="white" transform="translate(4.5 6)"/>
</clipPath>
</defs>
</svg>
