<svg width="207" height="152" viewBox="0 0 207 152" fill="none" xmlns="http://www.w3.org/2000/svg">
<g id="Group">
<g id="Group_2" filter="url(#filter0_f_517_128383)">
<g id="Group_3">
<path id="Subtract" fill-rule="evenodd" clip-rule="evenodd" d="M96.3302 64.8806L97.432 62.9309C78.1567 34.4285 45.8322 16.9996 10.8975 16.9996V18.9996C45.5008 18.9996 77.4932 36.4332 96.3302 64.8806ZM110.416 85.8622L109.295 87.8451C127.515 116.719 159.082 134.752 193.495 135.551L188.81 140.235C188.42 140.626 188.42 141.259 188.81 141.65C189.201 142.04 189.834 142.04 190.225 141.65L196.589 135.286C196.979 134.895 196.979 134.262 196.589 133.872L190.225 127.508C189.834 127.117 189.201 127.117 188.81 127.508C188.42 127.898 188.42 128.531 188.81 128.922L193.438 133.549C159.375 132.723 128.168 114.677 110.416 85.8622Z" fill="url(#paint0_linear_517_128383)"/>
<path id="Vector" d="M196.589 17.2926C196.979 17.6831 196.979 18.3163 196.589 18.7068L190.225 25.0707C189.834 25.4613 189.201 25.4613 188.81 25.0707C188.42 24.6802 188.42 24.0471 188.81 23.6565L194.467 17.9997L188.81 12.3428C188.42 11.9523 188.42 11.3191 188.81 10.9286C189.201 10.5381 189.834 10.5381 190.225 10.9286L196.589 17.2926ZM105.806 72.8402L104.917 72.3811L105.806 72.8402ZM101.934 78.1531L104.917 72.3811L106.694 73.2994L103.711 79.0714L101.934 78.1531ZM104.917 72.3811C122.498 38.3644 157.59 16.9997 195.882 16.9997V18.9997C158.338 18.9997 123.932 39.9471 106.694 73.2994L104.917 72.3811ZM10.8975 133.579C49.2193 133.579 84.339 112.197 101.934 78.1531L103.711 79.0714C85.7723 113.78 49.9673 135.579 10.8975 135.579V133.579Z" fill="url(#paint1_linear_517_128383)"/>
<g id="Vector_2" style="mix-blend-mode:screen">
<path d="M196.589 17.2926C196.979 17.6831 196.979 18.3163 196.589 18.7068L190.225 25.0707C189.834 25.4613 189.201 25.4613 188.81 25.0707C188.42 24.6802 188.42 24.0471 188.81 23.6565L194.467 17.9997L188.81 12.3428C188.42 11.9523 188.42 11.3191 188.81 10.9286C189.201 10.5381 189.834 10.5381 190.225 10.9286L196.589 17.2926ZM105.806 72.8402L104.917 72.3811L105.806 72.8402ZM101.934 78.1531L104.917 72.3811L106.694 73.2994L103.711 79.0714L101.934 78.1531ZM104.917 72.3811C122.498 38.3644 157.59 16.9997 195.882 16.9997V18.9997C158.338 18.9997 123.932 39.9471 106.694 73.2994L104.917 72.3811ZM10.8975 133.579C49.2193 133.579 84.339 112.197 101.934 78.1531L103.711 79.0714C85.7723 113.78 49.9673 135.579 10.8975 135.579V133.579Z" fill="url(#paint2_linear_517_128383)"/>
</g>
</g>
</g>
<g id="Group_4">
<path id="Subtract_2" fill-rule="evenodd" clip-rule="evenodd" d="M96.3302 64.8806L97.432 62.9309C78.1567 34.4285 45.8322 16.9996 10.8975 16.9996V18.9996C45.5008 18.9996 77.4932 36.4332 96.3302 64.8806ZM110.416 85.8622L109.295 87.8451C127.515 116.719 159.082 134.752 193.495 135.551L188.81 140.235C188.42 140.626 188.42 141.259 188.81 141.65C189.201 142.04 189.834 142.04 190.225 141.65L196.589 135.286C196.979 134.895 196.979 134.262 196.589 133.872L190.225 127.508C189.834 127.117 189.201 127.117 188.81 127.508C188.42 127.898 188.42 128.531 188.81 128.922L193.438 133.549C159.375 132.723 128.168 114.677 110.416 85.8622Z" fill="url(#paint3_linear_517_128383)"/>
<path id="Vector_3" d="M196.589 17.2926C196.979 17.6831 196.979 18.3163 196.589 18.7068L190.225 25.0707C189.834 25.4613 189.201 25.4613 188.81 25.0707C188.42 24.6802 188.42 24.0471 188.81 23.6565L194.467 17.9997L188.81 12.3428C188.42 11.9523 188.42 11.3191 188.81 10.9286C189.201 10.5381 189.834 10.5381 190.225 10.9286L196.589 17.2926ZM105.806 72.8402L104.917 72.3811L105.806 72.8402ZM101.934 78.1531L104.917 72.3811L106.694 73.2994L103.711 79.0714L101.934 78.1531ZM104.917 72.3811C122.498 38.3644 157.59 16.9997 195.882 16.9997V18.9997C158.338 18.9997 123.932 39.9471 106.694 73.2994L104.917 72.3811ZM10.8975 133.579C49.2193 133.579 84.339 112.197 101.934 78.1531L103.711 79.0714C85.7723 113.78 49.9673 135.579 10.8975 135.579V133.579Z" fill="url(#paint4_linear_517_128383)"/>
<g id="Vector_4" style="mix-blend-mode:screen">
<path d="M196.942 16.939C197.528 17.5248 197.528 18.4745 196.942 19.0603L187.396 28.6063C186.81 29.1921 185.861 29.1921 185.275 28.6063C184.689 28.0205 184.689 27.0707 185.275 26.485L193.76 17.9997L185.275 9.5144C184.689 8.92861 184.689 7.97886 185.275 7.39307C185.861 6.80729 186.81 6.80729 187.396 7.39307L196.942 16.939ZM105.806 72.8402L104.473 72.1515L105.806 72.8402ZM101.49 77.9236L104.473 72.1515L107.138 73.529L104.155 79.301L101.49 77.9236ZM104.473 72.1515C122.14 37.9687 157.403 16.4997 195.882 16.4997V19.4997C158.525 19.4997 124.29 40.3428 107.138 73.529L104.473 72.1515ZM10.8975 133.079C49.0324 133.079 83.9807 111.801 101.49 77.9236L104.155 79.301C86.1307 114.175 50.1542 136.079 10.8975 136.079V133.079Z" fill="url(#paint5_linear_517_128383)"/>
</g>
</g>
</g>
<defs>
<filter id="filter0_f_517_128383" x="0.897461" y="0.635742" width="205.984" height="151.307" filterUnits="userSpaceOnUse" color-interpolation-filters="sRGB">
<feFlood flood-opacity="0" result="BackgroundImageFix"/>
<feBlend mode="normal" in="SourceGraphic" in2="BackgroundImageFix" result="shape"/>
<feGaussianBlur stdDeviation="5" result="effect1_foregroundBlur_517_128383"/>
</filter>
<linearGradient id="paint0_linear_517_128383" x1="10.8975" y1="109.022" x2="196.881" y2="109.845" gradientUnits="userSpaceOnUse">
<stop stop-color="#8D1BF1"/>
<stop offset="0.5" stop-color="#E01668"/>
<stop offset="1" stop-color="#EC781F"/>
</linearGradient>
<linearGradient id="paint1_linear_517_128383" x1="10.8975" y1="48.7161" x2="195.88" y2="47.8441" gradientUnits="userSpaceOnUse">
<stop stop-color="#8D1BF1"/>
<stop offset="0.5" stop-color="#E01668"/>
<stop offset="1" stop-color="#EC781F"/>
</linearGradient>
<linearGradient id="paint2_linear_517_128383" x1="10.8975" y1="48.7161" x2="195.88" y2="47.8441" gradientUnits="userSpaceOnUse">
<stop stop-color="#8D1BF1"/>
<stop offset="0.5" stop-color="#E01668"/>
<stop offset="1" stop-color="#EC781F"/>
</linearGradient>
<linearGradient id="paint3_linear_517_128383" x1="10.8975" y1="109.022" x2="196.881" y2="109.845" gradientUnits="userSpaceOnUse">
<stop stop-color="#8D1BF1"/>
<stop offset="0.5" stop-color="#E01668"/>
<stop offset="1" stop-color="#EC781F"/>
</linearGradient>
<linearGradient id="paint4_linear_517_128383" x1="10.8975" y1="48.7161" x2="195.88" y2="47.8441" gradientUnits="userSpaceOnUse">
<stop stop-color="#8D1BF1"/>
<stop offset="0.5" stop-color="#E01668"/>
<stop offset="1" stop-color="#EC781F"/>
</linearGradient>
<linearGradient id="paint5_linear_517_128383" x1="10.8975" y1="48.7161" x2="195.88" y2="47.8441" gradientUnits="userSpaceOnUse">
<stop stop-color="#8D1BF1"/>
<stop offset="0.5" stop-color="#E01668"/>
<stop offset="1" stop-color="#EC781F"/>
</linearGradient>
</defs>
</svg>
