<svg width="137" height="26" viewBox="0 0 137 26" fill="none" xmlns="http://www.w3.org/2000/svg">
<path d="M7.21731 25.3936C5.78948 25.3936 4.56717 25.0907 3.55037 24.485C2.55522 23.8576 1.79803 22.9923 1.27882 21.8889C0.759606 20.7856 0.5 19.4984 0.5 18.0273V7.28608H5.36762V17.6379C5.36762 18.3085 5.49742 18.9035 5.75703 19.4227C6.03827 19.9203 6.42768 20.3097 6.92526 20.5909C7.42284 20.8721 7.98532 21.0128 8.6127 21.0128C9.26171 21.0128 9.82419 20.8721 10.3001 20.5909C10.7977 20.3097 11.1763 19.9203 11.4359 19.4227C11.7172 18.9035 11.8578 18.3085 11.8578 17.6379V7.28608H16.7254V25.0042H12.1823V21.4995L12.4419 22.2783C12.0308 23.3384 11.3602 24.128 10.4299 24.6473C9.52132 25.1448 8.45044 25.3936 7.21731 25.3936Z" fill="#111213"/>
<path d="M21.2566 25.0042V7.28608H25.7997V10.7908L25.5401 10.0119C25.9511 8.95189 26.611 8.17307 27.5196 7.67549C28.4499 7.15628 29.5315 6.89667 30.7647 6.89667C32.106 6.89667 33.2742 7.17791 34.2694 7.74039C35.2861 8.30287 36.0758 9.09251 36.6383 10.1093C37.2007 11.1045 37.482 12.2727 37.482 13.614V25.0042H32.6144V14.6524C32.6144 13.9601 32.4737 13.3652 32.1925 12.8676C31.9329 12.37 31.5543 11.9806 31.0567 11.6994C30.5808 11.4181 30.0183 11.2775 29.3693 11.2775C28.7419 11.2775 28.1794 11.4181 27.6818 11.6994C27.1843 11.9806 26.7949 12.37 26.5136 12.8676C26.254 13.3652 26.1242 13.9601 26.1242 14.6524V25.0042H21.2566Z" fill="#111213"/>
<path d="M51.5862 25.3936C50.3747 25.3936 49.2497 25.1773 48.2113 24.7446C47.1945 24.2903 46.3724 23.6305 45.745 22.7651L46.1993 21.7591V25.0042H41.6562V0.438965H46.5238V10.661L45.7775 9.68744C46.3616 8.80045 47.1512 8.11899 48.1464 7.64304C49.1632 7.14546 50.3206 6.89667 51.6186 6.89667C53.3061 6.89667 54.8312 7.30772 56.1942 8.1298C57.5571 8.95189 58.6388 10.066 59.4393 11.4722C60.2397 12.8568 60.6399 14.4144 60.6399 16.1451C60.6399 17.8542 60.2397 19.4119 59.4393 20.8181C58.6604 22.2243 57.5896 23.3384 56.2266 24.1605C54.8637 24.9826 53.3169 25.3936 51.5862 25.3936ZM51.002 21.0128C51.9107 21.0128 52.7111 20.8072 53.4034 20.3962C54.0957 19.9852 54.6365 19.4119 55.0259 18.6763C55.4154 17.9408 55.6101 17.097 55.6101 16.1451C55.6101 15.1933 55.4154 14.3604 55.0259 13.6464C54.6365 12.9109 54.0957 12.3376 53.4034 11.9265C52.7111 11.4939 51.9107 11.2775 51.002 11.2775C50.1367 11.2775 49.3579 11.4831 48.6656 11.8941C47.9949 12.3051 47.4649 12.8784 47.0755 13.614C46.7077 14.3495 46.5238 15.1933 46.5238 16.1451C46.5238 17.097 46.7077 17.9408 47.0755 18.6763C47.4649 19.4119 47.9949 19.9852 48.6656 20.3962C49.3579 20.8072 50.1367 21.0128 51.002 21.0128Z" fill="#111213"/>
<path d="M64.4643 25.0042V0.438965H69.3319V25.0042H64.4643Z" fill="#111213"/>
<path d="M108.484 25.3936C106.71 25.3936 105.109 24.9934 103.682 24.1929C102.275 23.3709 101.15 22.2567 100.307 20.8505C99.4846 19.4443 99.0736 17.865 99.0736 16.1127C99.0736 14.3604 99.4846 12.7919 100.307 11.4073C101.129 10.0011 102.254 8.8978 103.682 8.09735C105.109 7.2969 106.71 6.89667 108.484 6.89667C109.804 6.89667 111.026 7.12383 112.151 7.57814C113.276 8.03245 114.239 8.67065 115.039 9.49274C115.84 10.2932 116.413 11.2451 116.759 12.3484L112.541 14.1657C112.238 13.2787 111.719 12.5756 110.983 12.0563C110.269 11.5371 109.436 11.2775 108.484 11.2775C107.641 11.2775 106.883 11.4831 106.213 11.8941C105.564 12.3051 105.045 12.8784 104.655 13.614C104.287 14.3495 104.103 15.1933 104.103 16.1451C104.103 17.097 104.287 17.9408 104.655 18.6763C105.045 19.4119 105.564 19.9852 106.213 20.3962C106.883 20.8072 107.641 21.0128 108.484 21.0128C109.458 21.0128 110.302 20.7532 111.015 20.2339C111.729 19.7147 112.238 19.0116 112.541 18.1246L116.759 19.9743C116.435 21.0128 115.872 21.943 115.072 22.7651C114.271 23.5872 113.309 24.2362 112.184 24.7122C111.059 25.1665 109.826 25.3936 108.484 25.3936Z" fill="#111213"/>
<path d="M119.626 25.0042V0.438965H124.493V16.1776L122.676 15.5935L130.497 7.28608H136.5L130.075 14.4253L136.468 25.0042H130.951L125.597 16.0153L128.42 15.3014L123 21.2075L124.493 18.3843V25.0042H119.626Z" fill="#111213"/>
<path fill-rule="evenodd" clip-rule="evenodd" d="M77.3592 14.7881C77.0689 15.0669 77.0689 15.5312 77.3592 15.81L83.5239 21.7305C83.798 21.9938 84.2311 21.9938 84.5053 21.7305L90.666 15.8139C90.9563 15.5351 90.9563 15.0708 90.666 14.792L84.5013 8.87149C84.2271 8.60819 83.7941 8.60819 83.5199 8.87149L77.3592 14.7881ZM84.5043 7.74576C84.2302 8.00906 83.7971 8.00906 83.5229 7.74576L80.9095 5.2358C80.6353 4.97251 80.2022 4.97251 79.928 5.2358L73.5771 11.3351C73.2869 11.6139 73.2869 12.0783 73.5771 12.357L76.1085 14.7881C76.3987 15.0669 76.3987 15.5312 76.1085 15.81L73.5771 18.2411C73.2868 18.5199 73.2868 18.9842 73.5771 19.263L79.928 25.3623C80.2022 25.6256 80.6352 25.6256 80.9094 25.3623L83.5227 22.8525C83.7969 22.5892 84.23 22.5892 84.5041 22.8525L87.1186 25.3634C87.3928 25.6267 87.8259 25.6267 88.1 25.3634L94.4509 19.2641C94.7412 18.9853 94.7412 18.521 94.4509 18.2422L91.9186 15.8102C91.6283 15.5314 91.6283 15.0671 91.9186 14.7883L94.4471 12.3599C94.7374 12.0812 94.7374 11.6168 94.4471 11.3381L88.0962 5.23872C87.822 4.97542 87.3889 4.97542 87.1148 5.23872L84.5043 7.74576Z" fill="url(#paint0_linear_459_5628)"/>
<defs>
<linearGradient id="paint0_linear_459_5628" x1="73.3594" y1="20.1536" x2="97.5083" y2="8.18187" gradientUnits="userSpaceOnUse">
<stop stop-color="#8D1BF1"/>
<stop offset="0.5" stop-color="#E01668"/>
<stop offset="1" stop-color="#EC781F"/>
</linearGradient>
</defs>
</svg>
